<svg xmlns="http://www.w3.org/2000/svg" xmlns:xlink="http://www.w3.org/1999/xlink" width="311px" height="232px" viewBox="0 0 311 232" version="1.1">
    <!-- Generator: Sketch 50.2 (55047) - http://www.bohemiancoding.com/sketch -->
    <title>empty cart</title>
    <desc>Created with Sketch.</desc>
    <defs/>
    <g id="noon" stroke="none" stroke-width="1" fill="none" fill-rule="evenodd">
        <g id="1440---Empty---cart" transform="translate(-565.000000, -327.000000)">
            <g id="empty-cart" transform="translate(567.000000, 327.000000)">
                <path d="M84.2211328,23 C84.2211328,22.8682292 84.2211328,22.7364583 84.2211328,22.6106771 C84.2421465,11.1175453 92.8911336,1.46869457 104.324579,0.183177321 C115.758025,-1.10233993 126.337854,6.38452269 128.916016,17.5854167 C133.494265,15.0310983 139.084651,15.0912211 143.606783,17.7434111 C148.128916,20.3956011 150.905662,25.2427256 150.903691,30.4809896 C150.903691,30.8164062 150.903691,31.1458333 150.867715,31.4692708 C158.094056,34.14866 162.362138,41.6130929 161.00131,49.1918762 C159.640482,56.7706595 153.041415,62.2880484 145.33332,62.2916667 L88.5443164,62.2916667 C78.3995151,62.2812187 69.8852949,54.6518884 68.7769682,44.5787553 C67.6686414,34.5056221 74.3207739,25.21119 84.2211328,23 Z" id="Shape" fill="#F9F9FC" fill-rule="nonzero"/>
                <polygon id="Shape" fill="#E8EAF1" fill-rule="nonzero" points="224.21793 125.64349 255.913281 125.64349 270.747617 106.291146 238.998301 106.291146"/>
                <rect id="Rectangle-path" fill="#F4F6F8" fill-rule="nonzero" x="175.313789" y="125.64349" width="80.5994922" height="70.8148437"/>
                <rect id="Rectangle-path" fill="#E1E7ED" fill-rule="nonzero" x="175.313789" y="125.64349" width="48.9101367" height="70.8148437"/>
                <polygon id="Shape" fill="#E8EAF1" fill-rule="nonzero" points="175.325781 125.64349 160.419492 106.327083 209.383594 106.327083 224.21793 125.64349"/>
                <path d="M244.466738,141.31224 C243.701137,141.018482 242.888433,140.866265 242.068301,140.863021 C241.576881,140.864864 241.086837,140.915019 240.605254,141.01276 L238.644531,144.390885 C239.450155,143.955654 240.355123,143.736881 241.27082,143.75599 C241.830348,143.754973 242.387308,143.831572 242.925742,143.983594 L244.466738,141.31224 Z M232.648438,150.392448 C232.648438,155.267969 236.797734,159.059375 241.642578,159.059375 C246.663526,159.079295 250.753606,155.036521 250.786621,150.021094 C250.768325,147.22208 249.485971,144.580922 247.296895,142.833594 L245.773887,145.457031 C247.116531,146.599496 247.891986,148.27126 247.896504,150.033073 C247.870011,153.476655 245.053926,156.246776 241.606602,156.220313 C238.159277,156.193849 235.386144,153.380821 235.412637,149.93724 C235.413716,149.535287 235.451853,149.134288 235.526563,148.739323 L232.648438,150.392448 Z" id="Shape" fill="#FFFFFF"/>
                <polyline id="Shape" stroke="#C6CBDB" stroke-width="2.4" fill="#8E99A4" fill-rule="nonzero" stroke-linecap="round" stroke-linejoin="round" points="132.471699 198.027604 203.435469 198.027604 296.440879 198.027604"/>
                <rect id="Rectangle-path" fill="#F9F9FC" fill-rule="nonzero" x="39.6161914" y="173.260677" width="55.1041016" height="11.3502604" rx="1.152"/>
                <path d="M7.75294922,197.991667 L150.382031,197.991667" id="Shape" stroke="#C6CBDB" stroke-width="2.4" fill="#8E99A4" fill-rule="nonzero" stroke-linecap="round" stroke-linejoin="round"/>
                <g id="_Group_" transform="translate(40.773438, 82.057292)">
                    <path d="M138.803574,19.0768229 C138.839611,19.1224917 138.839611,19.1868833 138.803574,19.2325521 L138.803574,19.0768229 Z" id="Shape" fill="#E8EAF1" fill-rule="nonzero"/>
                    <path d="M138.803574,55.1341146 L138.803574,122.127604 C138.800263,136.385861 127.22817,147.942709 112.954414,147.942708 L27.1263281,147.942708 C12.9225241,147.939761 1.38200721,136.489341 1.28316406,122.301302 L0.803476562,55.1341146 L138.803574,55.1341146 Z" id="Shape" fill="#E8EAF1" fill-rule="nonzero"/>
                    <path d="M138.803574,19.2385417 L138.803574,55.1341146 L0.803476563,55.1341146 L0.557636719,19.7177083 L138.665664,19.2684896 C138.713441,19.2875971 138.76805,19.2757384 138.803574,19.2385417 Z" id="Shape" fill="#E8EAF1" fill-rule="nonzero"/>
                    <path d="M138.803574,19.0768229 L138.803574,19.2325521 C138.778141,19.2575741 138.74327,19.2706364 138.707637,19.2684896 L0.599609375,19.7177083 C0.599609375,19.7177083 0.599609375,19.7177083 0.599609375,19.7177083 L4.54503906,17.8429687 L19.4153516,10.7692708 L4.15529297,1.19791667 C4.08967877,1.15447173 4.05996576,1.07345629 4.0819545,0.997952069 C4.10394324,0.922447851 4.17252522,0.869996263 4.25123047,0.868489583 L133.395098,0.419270833 C133.454495,0.417476066 133.508365,0.45388973 133.528782,0.509636333 C133.549199,0.565382936 133.531573,0.627925286 133.485039,0.66484375 L133.395098,0.73671875 L120.85127,10.7273437 L133.395098,16.5372396 L138.755605,19.0169271 C138.781013,19.0270949 138.799221,19.0498296 138.803574,19.0768229 Z" id="Shape" fill="#E2E5ED" fill-rule="nonzero"/>
                    <polygon id="Shape" fill="#E8EAF1" fill-rule="nonzero" points="133.395098 0.7546875 133.395098 16.5611979 120.85127 10.7513021"/>
                    <polygon id="Shape" fill="#E8EAF1" fill-rule="nonzero" points="19.4153516 10.7513021 4.54503906 17.8190104 4.15529297 1.20989583"/>
                    <path d="M4.15529297,1.20989583 L4.54503906,17.8190104" id="Shape" stroke="#C5D0D9" stroke-width="2.4" stroke-linecap="round" stroke-linejoin="round"/>
                    <path d="M0.557636719,19.7177083 L0.803476563,55.1341146 L1.28316406,122.301302 C1.38200721,136.489341 12.9225241,147.939761 27.1263281,147.942708 L112.954414,147.942708 C119.810038,147.944297 126.385505,145.225392 131.234287,140.384121 C136.083069,135.542849 138.80798,128.975784 138.80957,122.127604 L138.80957,18.8192708" id="Shape" stroke="#C5D0D9" stroke-width="2.4" stroke-linecap="round" stroke-linejoin="round"/>
                    <path d="M4.15529297,1.19791667 C4.08967877,1.15447173 4.05996576,1.07345629 4.0819545,0.997952069 C4.10394324,0.922447851 4.17252522,0.869996263 4.25123047,0.868489583 L133.395098,0.419270833 C133.454495,0.417476066 133.508365,0.45388973 133.528782,0.509636333 C133.549199,0.565382936 133.531573,0.627925286 133.485039,0.66484375 L133.395098,0.73671875 L120.85127,10.7273437 L133.395098,16.5372396 L138.755605,19.0169271 C138.773522,19.0233818 138.788452,19.0361655 138.797578,19.0528646 C138.833615,19.0985334 138.833615,19.1629249 138.797578,19.2085937 C138.772144,19.2336158 138.737274,19.2466781 138.701641,19.2445312 L0.599609375,19.7177083 C0.599609375,19.7177083 0.599609375,19.7177083 0.599609375,19.7177083 L4.54503906,17.8429687 L19.4153516,10.7692708 L4.15529297,1.19791667 Z" id="Shape" stroke="#C5D0D9" stroke-width="2.4" stroke-linecap="round" stroke-linejoin="round"/>
                    <path d="M133.395098,0.7546875 L133.395098,16.5611979" id="Shape" stroke="#C5D0D9" stroke-width="2.4" stroke-linecap="round" stroke-linejoin="round"/>
                    <polyline id="Shape" stroke="#C5D0D9" stroke-width="2.4" stroke-linecap="round" stroke-linejoin="round" points="0.557636719 55.1341146 0.803476563 55.1341146 138.803574 55.1341146"/>
                </g>
                <g id="_Group_2" transform="translate(162.494141, 101.223958)" opacity="0.13">
                    <g id="Group" style="mix-blend-mode: multiply;">
                        <path d="M17.0888672,0.0658854167 L0.161894531,0.0658854167 C0.161894531,0.0658854167 1.15125,127.590104 2.56033203,127.302604 C5.68429687,126.667708 16.2973828,119.01901 16.3933203,106.255208 L16.8969922,39.0880208 L17.0888672,0.0658854167 Z" id="Shape" fill="#E8EAF1" fill-rule="nonzero"/>
                        <path d="M0.161894531,0.0658854167 C0.161894531,0.0658854167 1.15125,127.590104 2.56033203,127.302604 C5.68429687,126.667708 16.2973828,119.01901 16.3933203,106.255208 L16.8969922,39.0880208 L17.076875,0.0658854167 L0.161894531,0.0658854167 Z" id="Shape" stroke="#C5D0D9" stroke-width="2.4" stroke-linecap="round" stroke-linejoin="round"/>
                    </g>
                </g>
                <path d="M147.587852,124.164062 C147.587852,156.849219 138.281914,190.552604 110.454043,190.552604 C83.0758789,190.552604 73.6500195,157.777604 73.6500195,125.092448" id="Shape" stroke="#C5D0D9" stroke-width="2.4" stroke-linecap="round" stroke-linejoin="round"/>
                <ellipse id="Oval" stroke="#C5D0D9" stroke-width="2.4" fill="#E8EAF1" fill-rule="nonzero" stroke-linecap="round" stroke-linejoin="round" cx="73.6500195" cy="119.707813" rx="5.38449219" ry="5.37864583"/>
                <ellipse id="Oval" stroke="#C5D0D9" stroke-width="2.4" fill="#E8EAF1" fill-rule="nonzero" stroke-linecap="round" stroke-linejoin="round" cx="148.15748" cy="118.809375" rx="5.38449219" ry="5.37864583"/>
                <path d="M301.615508,197.991667 L306.868086,197.991667" id="Shape" stroke="#C6CBDB" stroke-width="2.4" fill="#8E99A4" fill-rule="nonzero" stroke-linecap="round" stroke-linejoin="round"/>
                <path d="M2.62628906,197.991667 L0,197.991667" id="Shape" stroke="#C6CBDB" stroke-width="2.4" fill="#8E99A4" fill-rule="nonzero" stroke-linecap="round" stroke-linejoin="round"/>
                <g id="Group" opacity="0.28" style="mix-blend-mode: screen;" transform="translate(11.992188, 4.791667)" fill="#FCD66D" fill-rule="nonzero">
                    <path d="M13.7070703,37.9799479 L13.7070703,12.4223958 C13.7070703,5.56432292 19.9190234,0 26.7845508,0 L13.6351172,0 C6.76958984,0 0.557636719,5.56432292 0.557636719,12.4223958 L0.557636719,37.9799479 C0.557636719,44.8440104 6.76359375,50.4023438 13.6351172,50.4023438 L26.7845508,50.4023438 C19.9190234,50.4023438 13.7070703,44.8380208 13.7070703,37.9799479 Z" id="Shape"/>
                </g>
                <path d="M200.329492,55.4994792 C200.329492,55.415625 200.329492,55.3257812 200.329492,55.2419271 C200.338687,47.6449282 206.05452,41.2647987 213.612117,40.4155879 C221.169715,39.5663772 228.161678,44.518593 229.860254,51.9236979 C232.884457,50.2332279 236.579184,50.2711308 239.567994,52.0232863 C242.556804,53.7754419 244.391579,56.9791464 244.388789,60.4408854 C244.388789,60.6625 244.388789,60.878125 244.388789,61.09375 C249.175888,62.854152 252.008101,67.7922989 251.107272,72.8078614 C250.206443,77.8234239 245.832342,81.470077 240.731172,81.4583333 L203.183633,81.4583333 C196.474073,81.4622217 190.837669,76.4193959 190.105168,69.7571809 C189.372666,63.0949659 193.779026,56.9503484 200.329492,55.4994792 Z" id="Shape" fill="#F4F6F8" fill-rule="nonzero"/>
                <g id="Group-2" transform="translate(16.000000, 14.000000)">
                    <path d="M62.3312372,0.91503268 L12.7404081,0.91503268 C6.66427122,0.91503268 1.16656133,5.8029085 1.16656133,11.8272549 L1.16656133,34.2778105 C1.16656133,40.3074183 6.65896455,45.1900327 12.7404081,45.1900327 L47.9607754,45.1900327 L61.3123566,55.7129085 L61.3123566,45.1900327 L62.3312372,45.1900327 C65.2502186,45.1900327 68.0496462,44.0403554 70.1136778,41.9939168 C72.1777094,39.9474782 73.3372703,37.1719117 73.3372703,34.2778105 L73.3372703,11.8272549 C73.3372703,8.93315363 72.1777094,6.15758721 70.1136778,4.11114857 C68.0496462,2.06470993 65.2502186,0.91503268 62.3312372,0.91503268 Z" id="Shape" stroke="#FFC729" stroke-width="3.696" fill="#FDD760" fill-rule="nonzero"/>
                    <g id="Group" opacity="0.28" style="mix-blend-mode: screen;" transform="translate(0.673041, 0.915033)" fill="#FCD66D" fill-rule="nonzero">
                        <path d="M12.1310471,33.3627778 L12.1310471,10.9122222 C12.1310471,4.88787582 17.628757,0 23.7048939,0 L12.0673671,0 C5.99123018,0 0.493520289,4.88787582 0.493520289,10.9122222 L0.493520289,33.3627778 C0.493520289,39.3923856 5.98592351,44.275 12.0673671,44.275 L23.7048939,44.275 C17.628757,44.275 12.1310471,39.3871242 12.1310471,33.3627778 Z" id="Shape"/>
                    </g>
                    <ellipse id="Oval-2" fill="#FFC729" cx="24.2985075" cy="18.6666667" rx="3.31343284" ry="3.29411765"/>
                    <ellipse id="Oval-2-Copy" fill="#FFC729" cx="46.3880597" cy="18.6666667" rx="3.31343284" ry="3.29411765"/>
                    <path d="M28.5277507,32.5310131 C33.8344205,27.9886383 39.1552414,27.9886383 44.4902134,32.5310131" id="Shape" stroke="#FFC729" stroke-width="3.696" fill="#FDD760" fill-rule="nonzero" stroke-linecap="round"/>
                    <path d="M62.3312372,0.91503268 L12.7404081,0.91503268 C6.66427122,0.91503268 1.16656133,5.8029085 1.16656133,11.8272549 L1.16656133,34.2778105 C1.16656133,40.3074183 6.65896455,45.1900327 12.7404081,45.1900327 L47.9607754,45.1900327 L61.3123566,55.7129085 L61.3123566,45.1900327 L62.3312372,45.1900327 C65.2502186,45.1900327 68.0496462,44.0403554 70.1136778,41.9939168 C72.1777094,39.9474782 73.3372703,37.1719117 73.3372703,34.2778105 L73.3372703,11.8272549 C73.3372703,8.93315363 72.1777094,6.15758721 70.1136778,4.11114857 C68.0496462,2.06470993 65.2502186,0.91503268 62.3312372,0.91503268 Z" id="Shape" stroke="#FFC729" stroke-width="3.696"/>
                </g>
            </g>
        </g>
    </g>
</svg>
